<?xml version="1.0" encoding="UTF-8" standalone="no"?>
<svg width="65px" height="129px" viewBox="0 0 65 129" version="1.1" xmlns="http://www.w3.org/2000/svg" xmlns:xlink="http://www.w3.org/1999/xlink" xmlns:sketch="http://www.bohemiancoding.com/sketch/ns">
    <!-- Generator: Sketch 3.2.2 (9983) - http://www.bohemiancoding.com/sketch -->
    <title>losavatar</title>
    <desc>Created with Sketch.</desc>
    <defs>
        <linearGradient x1="0.00128096446%" y1="49.9991464%" x2="99.9997712%" y2="49.9991464%" id="linearGradient-1">
            <stop stop-color="#FFFFFF" stop-opacity="0.1" offset="0%"></stop>
            <stop stop-color="#C7C9CA" stop-opacity="0.4" offset="100%"></stop>
        </linearGradient>
        <linearGradient x1="0.00298886377%" y1="49.9991464%" x2="99.9992691%" y2="49.9991464%" id="linearGradient-2">
            <stop stop-color="#FFFFFF" stop-opacity="0.1" offset="0%"></stop>
            <stop stop-color="#C7C9CA" stop-opacity="0.4" offset="100%"></stop>
        </linearGradient>
    </defs>
    <g id="Page-1" stroke="none" stroke-width="1" fill="none" fill-rule="evenodd" sketch:type="MSPage">
        <g id="Artboard" sketch:type="MSArtboardGroup" transform="translate(-125.000000, -32.000000)">
            <g id="Oval-1-+-losavatar" sketch:type="MSLayerGroup">
                <g id="losavatar" transform="translate(125.000000, 32.000000)" sketch:type="MSShapeGroup">
                    <g id="Layer_2">
                        <path d="M58.63936,47.3927349 C58.63936,47.3927349 63.7364,41.5820361 64.22676,46.4648675 C64.22676,46.4648675 66.13828,53.5453614 62.65844,58.0862651 C62.65844,58.0862651 59.47292,63.2136265 57.46312,58.0862651 C55.45332,52.9589036 58.63936,47.3927349 58.63936,47.3927349 L58.63936,47.3927349 Z" id="Shape" fill="#C63B3D"></path>
                        <path d="M6.71528,47.3927349 C6.71528,47.3927349 1.61824,41.5820361 1.12788,46.4648675 C1.12788,46.4648675 -0.78364,53.5453614 2.6962,58.0862651 C2.6962,58.0862651 5.88172,63.2136265 7.89152,58.0862651 C9.90132,52.9589036 6.71528,47.3927349 6.71528,47.3927349 L6.71528,47.3927349 Z" id="Shape" fill="#C63B3D"></path>
                        <path d="M16.20788,82.4351446 C16.20788,82.4351446 5.04712,85.1089157 4.6176,86.6771205 C4.18808,88.2453253 7.62268,92.0469398 7.62268,92.0469398 L52.7436,99.4600361 L56.41636,87.2107349 L56.35916,86.035747 C56.35916,86.035747 43.03052,82.4864337 42.2032,82.789506 C41.37588,83.0925783 16.20788,82.4351446 16.20788,82.4351446 L16.20788,82.4351446 Z" id="Shape" fill="#561C1D"></path>
                        <path d="M16.05864,73.2082771 L13.97188,72.5850361 C13.97188,72.5850361 17.7112,88.0261807 6.51092,91.3185301 L14.131,109.977422 L28.6364,128.910892 L54.34208,93.6047831 C54.34208,93.6047831 44.85052,85.426494 47.12604,74.5469759" id="Shape" fill="#C63B3D"></path>
                        <path d="M18.51824,77.1378554 C18.51824,77.1378554 11.6116,89.3198072 10.13116,89.5021687 C10.13116,89.5021687 24.74212,114.327675 42.99048,90.0865542 C61.23884,65.8454337 46.1968,70.1500964 45.50156,69.2843976 C44.80632,68.4186988 18.51824,77.1378554 18.51824,77.1378554 L18.51824,77.1378554 Z" id="Shape" opacity="0.47" fill="#892A2B"></path>
                        <path d="M7.78024,18.4231687 C7.78024,18.4231687 -0.71292,59.0130964 14.02024,71.6157229 C28.7534,84.2183494 56.3134,61.7246867 56.3134,61.4014096 C56.3134,61.4014096 66.86316,0.981228916 42.77,14.4511084 C18.67684,27.920988 7.78024,18.4231687 7.78024,18.4231687 L7.78024,18.4231687 Z" id="Shape" fill="#C63B3D"></path>
                        <path d="M14.19704,82.4351446 C10.47384,83.1889398 8.2186,84.3473494 4.68156,86.035747 L0.078,93.618253 L15.67488,115.897434 L20.18484,105.226181 L4.96392,86.5978554 C4.96392,86.5978554 7.53324,84.5146867 14.0374,83.0723735 C14.10656,82.8029759 14.1674,82.7071325 14.19704,82.4351446 L14.19704,82.4351446 Z" id="Shape" fill="#D2D1D1"></path>
                        <path d="M56.35864,86.0362651 C56.35864,86.0362651 55.70916,84.6690723 47.6138,83.2536988 C47.65176,83.4562651 46.61748,83.4469398 46.69444,83.6313735 C50.88356,84.6462771 51.10092,84.7581807 55.98268,86.6916265 L40.85536,104.852133 L45.1776,116.647084 L60.77448,94.0871084 L56.35864,86.0362651 L56.35864,86.0362651 Z" id="Shape" fill="#D2D1D1"></path>
                        <path d="M5.33,48.8163976 L4.14336,65.238253 C3.8792,68.8948072 4.74032,72.5389277 6.59568,75.7048675 C13.93548,88.2277108 33.55456,115.938361 55.8766,75.7048675 C56.64308,74.3226506 59.735,69.4911084 59.32732,65.238253 L58.71736,45.5349277 C58.71736,45.5349277 50.46392,70.8717711 41.10392,67.2452651 C31.74392,63.618759 30.63736,66.4303373 30.63736,66.4303373 C30.63736,66.4303373 28.86572,63.4571205 16.4242,68.5026265 C16.42316,68.5031446 10.53,66.9489277 5.33,48.8163976 L5.33,48.8163976 Z" id="Shape" fill="#712425"></path>
                        <g id="Group" transform="translate(11.440000, 64.759036)">
                            <path d="M0.17212,3.80731325 C0.17212,3.80731325 3.42732,7.33693976 10.79988,1.51795181 C10.79988,1.51795181 16.83188,-1.34387952 19.03408,1.51795181 C19.03408,1.51795181 22.48116,-1.15322892 27.55532,1.42262651 C27.55532,1.42262651 35.8852,7.43226506 37.80036,3.71198795 C37.80036,3.71198795 34.92788,17.9641566 18.98624,2.58673494 C18.98624,2.58673494 10.22528,17.4481566 0.17212,3.80731325 L0.17212,3.80731325 Z" id="Shape" fill="#712425"></path>
                            <path d="M0.18564,3.79384337 C0.54184,4.12178313 0.9802,4.35543373 1.43676,4.51240964 C1.66036,4.60721687 1.90372,4.64037349 2.13616,4.70409639 C2.37744,4.72844578 2.61456,4.78128916 2.85688,4.78284337 C3.09868,4.77714458 3.34048,4.80926506 3.58124,4.77351807 C3.82148,4.74346988 4.0638,4.73828916 4.30092,4.68751807 L5.01124,4.54090361 L5.70492,4.32538554 C5.93892,4.26114458 6.16148,4.1653012 6.38352,4.06790361 L7.05172,3.78140964 L7.6934,3.43792771 C7.90452,3.31825301 8.12812,3.22137349 8.3278,3.08149398 L8.94088,2.68775904 C9.14212,2.5520241 9.35636,2.4359759 9.54616,2.28314458 L10.71356,1.41019277 L10.72812,1.39931325 L10.74008,1.39413253 C11.41712,1.08121687 12.1082,0.825807229 12.81696,0.608216867 C13.52572,0.394771084 14.2506,0.224325301 14.99264,0.137289157 C15.73208,0.0523253012 16.49596,0.0383373494 17.24008,0.218626506 C17.42572,0.263180723 17.60772,0.321722892 17.78712,0.391144578 C17.96392,0.46626506 18.1402,0.54553012 18.30348,0.649662651 C18.46988,0.746542169 18.6264,0.864662651 18.7694,0.994180723 C18.9176,1.12007229 19.04136,1.26927711 19.16616,1.41692771 L18.93164,1.38687952 C19.25664,1.15426506 19.58996,0.983301205 19.93836,0.821662651 C20.11568,0.752240964 20.28728,0.667795181 20.46928,0.611843373 C20.6492,0.550710843 20.82808,0.484915663 21.01424,0.442951807 C21.19832,0.395289157 21.38136,0.344 21.5696,0.316024096 C21.7568,0.284939759 21.94244,0.240385542 22.13224,0.22846988 C22.32152,0.212409639 22.50976,0.184433735 22.69904,0.17873494 L23.2674,0.169927711 C23.45668,0.172 23.64544,0.194277108 23.8342,0.205156627 C24.02348,0.212927711 24.21068,0.238831325 24.39684,0.273542169 C24.583,0.306180723 24.77072,0.331048193 24.9548,0.369903614 L25.50288,0.510819277 C25.8726,0.591120482 26.21632,0.751204819 26.57408,0.867771084 C26.7514,0.930975904 26.91728,1.02112048 27.0894,1.09675904 L27.60108,1.33351807 L27.6068,1.33610843 L27.6146,1.34180723 C28.39148,1.89666265 29.20372,2.41214458 30.03312,2.89136145 C30.8646,3.36746988 31.71844,3.8083494 32.60608,4.16944578 C33.0486,4.35284337 33.50464,4.50256627 33.96692,4.62275904 C34.19728,4.687 34.4318,4.73207229 34.6658,4.77403614 C34.90084,4.81444578 35.13692,4.83672289 35.37404,4.85019277 C35.61064,4.85485542 35.84672,4.84708434 36.07968,4.81289157 C36.3116,4.77662651 36.53624,4.71186747 36.74996,4.6196506 C36.85396,4.56991566 36.9512,4.50619277 37.0526,4.45127711 L37.31884,4.23161446 C37.39268,4.14354217 37.4712,4.05857831 37.54244,3.96843373 L37.72288,3.67261446 L38.0094,3.20272289 L37.88824,3.73012048 C37.65996,4.72326506 37.27828,5.66771084 36.76972,6.54791566 C36.50452,6.98050602 36.22424,7.40791566 35.88156,7.78766265 C35.54512,8.17103614 35.1702,8.52539759 34.7464,8.81655422 C34.33456,9.12636145 33.86188,9.34498795 33.38244,9.53149398 C33.1396,9.61749398 32.8874,9.67707229 32.63884,9.74493976 C32.38404,9.78016867 32.12976,9.83353012 31.8734,9.85321687 C31.61652,9.85839759 31.35808,9.88481928 31.10172,9.87186747 C30.84588,9.85114458 30.58796,9.84181928 30.33316,9.81125301 L29.575,9.67914458 C29.32592,9.62060241 29.081,9.54703614 28.83348,9.48124096 C28.58336,9.42321687 28.34936,9.32012048 28.10912,9.23463855 C27.87148,9.14242169 27.62656,9.06626506 27.39932,8.95125301 C26.93652,8.73936145 26.47164,8.53109639 26.03276,8.2746506 C25.5814,8.04048193 25.15032,7.77315663 24.72444,7.49857831 C24.28868,7.23798795 23.88204,6.93646988 23.46812,6.64479518 C23.04848,6.36037349 22.65588,6.04175904 22.25756,5.73039759 C21.85456,5.42421687 21.46612,5.10145783 21.086,4.76885542 C20.70588,4.43677108 20.31536,4.11556627 19.9524,3.76483133 L18.84636,2.73179518 L19.16252,2.68879518 C18.6342,3.54361446 18.0362,4.33004819 17.38932,5.08539759 C17.06744,5.46359036 16.72632,5.82468675 16.37636,6.17801205 C16.0238,6.52874699 15.65512,6.86290361 15.27552,7.18566265 L14.68584,7.64571084 L14.07224,8.07415663 L13.43368,8.46685542 L12.77016,8.81707229 L12.08168,9.11859036 L11.37084,9.3646747 C11.12904,9.4320241 10.8836,9.48642169 10.64076,9.54807229 C10.3948,9.59728916 10.14416,9.62371084 9.89612,9.66204819 C9.39588,9.70660241 8.89252,9.71851807 8.3928,9.6656747 C8.14112,9.66049398 7.89672,9.59418072 7.64972,9.55428916 C7.40064,9.51854217 7.1604,9.44963855 6.92224,9.37192771 C6.43656,9.24655422 5.9852,9.02689157 5.53072,8.82536145 C5.096,8.58290361 4.65296,8.35391566 4.25568,8.05498795 C3.83604,7.78714458 3.46424,7.45868675 3.08464,7.14162651 C2.70764,6.82093976 2.37588,6.45259036 2.0202,6.11066265 L1.0504,4.99421687 L0.15704,3.81871084 L0.18564,3.79384337 L0.18564,3.79384337 Z M0.18772,3.79591566 L1.11436,4.94137349 L2.11224,6.02259036 C2.47572,6.35104819 2.81528,6.70644578 3.19748,7.01159036 C3.5802,7.31621687 3.95044,7.63638554 4.36748,7.89179518 C4.76268,8.17984337 5.20052,8.39639759 5.629,8.62693976 C6.07568,8.81603614 6.51872,9.02326506 6.9914,9.13672289 C7.22332,9.20821687 7.4568,9.27193976 7.69808,9.30198795 C7.93728,9.3366988 8.17336,9.39783133 8.41672,9.3983494 C8.89876,9.4413494 9.38288,9.42218072 9.86284,9.37192771 C10.101,9.33048193 10.34124,9.30146988 10.5768,9.2506988 C10.81028,9.18749398 11.04532,9.13154217 11.27672,9.06315663 L11.95792,8.815 L12.6178,8.51296386 L13.2548,8.16326506 L13.86788,7.77263855 L14.45756,7.34626506 L15.02436,6.88880723 C15.39304,6.57226506 15.75288,6.24587952 16.0966,5.90136145 C16.43772,5.55477108 16.77104,5.19989157 17.08564,4.82791566 C17.71536,4.08914458 18.30816,3.30271084 18.811,2.48363855 L18.94256,2.26915663 L19.12716,2.44063855 L20.228,3.46279518 C20.5894,3.81042169 20.9768,4.12696386 21.35432,4.45490361 C21.72872,4.78698795 22.11092,5.10974699 22.50716,5.41489157 C22.89872,5.72573494 23.28508,6.04383133 23.69692,6.32721687 C24.10304,6.61785542 24.50292,6.91885542 24.92932,7.17789157 C25.34688,7.45143373 25.76912,7.71720482 26.21008,7.94981928 C26.6396,8.20471084 27.092,8.41142169 27.54284,8.62175904 C27.76488,8.73625301 28.00148,8.81085542 28.23236,8.90255422 C28.46532,8.98803614 28.6936,9.08854217 28.93384,9.14863855 C29.172,9.21546988 29.4086,9.29110843 29.64832,9.35120482 L30.37632,9.49004819 C30.6202,9.52320482 30.86668,9.53512048 31.11212,9.55946988 C31.35756,9.57553012 31.60352,9.55377108 31.84948,9.55325301 C32.0944,9.53822892 32.3362,9.49056627 32.58008,9.46155422 C32.81668,9.39990361 33.05796,9.34809639 33.28988,9.26986747 C33.748,9.09890361 34.20196,8.89892771 34.60028,8.60828916 C35.01004,8.3363012 35.37664,8.00059036 35.70788,7.63483133 C36.04484,7.2726988 36.32668,6.8613494 36.58928,6.44119277 C37.09472,5.58948193 37.48316,4.65539759 37.71456,3.69489157 L37.87992,3.75239759 L37.68232,4.06893976 C37.60432,4.16633735 37.51852,4.25751807 37.43688,4.35180723 C37.34172,4.43262651 37.24344,4.51085542 37.14516,4.58701205 C37.03544,4.64659036 36.92936,4.71342169 36.81652,4.76574699 C36.58616,4.86210843 36.34696,4.92790361 36.10256,4.9636506 C35.85816,4.99680723 35.61272,5.00250602 35.36832,4.99473494 C34.39072,4.93619277 33.4568,4.63519277 32.56188,4.28083133 C31.66228,3.92957831 30.79752,3.49750602 29.9546,3.03020482 C29.11272,2.55927711 28.29268,2.05519277 27.4976,1.50344578 L27.5106,1.51173494 L27.00464,1.28637349 C26.8346,1.21487952 26.6708,1.12836145 26.49608,1.06878313 C26.14404,0.959987952 25.80552,0.806638554 25.4436,0.734108434 L24.90748,0.603554217 C24.72704,0.568325301 24.544,0.548638554 24.36252,0.520144578 C24.18104,0.489578313 23.99904,0.467819277 23.81496,0.464192771 C23.63192,0.456939759 23.44888,0.439325301 23.26532,0.440361446 L22.7162,0.45953012 C22.53368,0.468337349 22.3522,0.499421687 22.17072,0.518590361 C21.9882,0.533614458 21.81036,0.580240964 21.63096,0.613915663 C21.45052,0.644481928 21.2758,0.697325301 21.10004,0.746542169 C20.92272,0.791096386 20.75216,0.855337349 20.58004,0.914915663 C20.40584,0.969313253 20.24256,1.05168675 20.07356,1.11851807 C19.747,1.2713494 19.4168,1.4469759 19.13756,1.64954217 L19.00912,1.74279518 L18.90252,1.61949398 C18.78968,1.48893976 18.67892,1.35579518 18.54632,1.24492771 C18.4184,1.13043373 18.27852,1.02578313 18.12876,0.940301205 C17.98212,0.848084337 17.82196,0.778144578 17.6618,0.710277108 C17.49852,0.648108434 17.3316,0.59526506 17.15948,0.555373494 C16.47204,0.398915663 15.74664,0.387 15.0306,0.464710843 C13.59748,0.626349398 12.18412,1.06360241 10.85968,1.64228916 L10.88568,1.62622892 L9.69436,2.494 C9.50092,2.64527711 9.282,2.76184337 9.0766,2.8960241 L8.45104,3.2866506 C8.24772,3.4249759 8.01892,3.52185542 7.80312,3.6399759 L7.1474,3.97983133 L6.46412,4.26321687 C6.23688,4.35957831 6.00912,4.45386747 5.7694,4.51655422 L5.05908,4.72740964 L4.33004,4.86521687 C4.08668,4.90873494 3.83656,4.90666265 3.5906,4.92945783 C3.34412,4.95743373 3.09556,4.91806024 2.84908,4.91495181 C2.60208,4.90562651 2.35924,4.8439759 2.11536,4.81081928 C1.87928,4.73828916 1.63332,4.6963253 1.40764,4.59219277 C0.94744,4.41708434 0.51064,4.16685542 0.1586,3.82078313 L0.18772,3.79591566 L0.18772,3.79591566 Z" id="Shape" fill="#4D3532"></path>
                        </g>
                        <path d="M18.79956,32.6701566 C18.79956,32.6701566 35.88676,34.5637108 37.69272,34.3134819" id="Shape" stroke="#712425" stroke-width="0.25"></path>
                        <path d="M16.71956,30.9429036 C16.71956,30.9429036 44.1064,33.5332651 48.09272,31.8065301" id="Shape" stroke="#712425" stroke-width="0.25"></path>
                        <path d="M58.20204,52.3242651 L59.72616,52.3242651 C59.94768,52.3242651 60.112,52.1222169 60.06364,51.9072169 C59.72564,50.3944458 58.70488,45.1536265 60.1614,42.6544458 C61.86752,39.7268193 67.63328,16.1053133 52.72488,11.9861205 C52.62296,11.9581446 52.53924,11.8902771 52.49192,11.795988 C52.12792,11.065506 49.53884,7.57214458 32.10792,2.36862651 C32.097,2.36448193 32.08712,2.36137349 32.0762,2.35722892 C31.83024,2.2510241 28.54124,0.828915663 27.80908,0.372493976 C27.1908,-0.0124337349 27.57664,2.16657831 27.74356,2.99860241 C27.77892,3.17526506 27.67388,3.34571084 27.49916,3.39337349 C24.674,4.1616747 3.4216,10.4080723 1.35928,24.9021807 C1.35824,24.918241 1.3572,24.932747 1.35616,24.9488072 C1.3572,25.5896627 1.39984,39.5413494 3.24896,42.448253 C3.2552,42.4606867 3.2604,42.4705301 3.26664,42.4824458 C3.40132,42.8072771 5.24784,47.3694217 4.25204,50.7296386 C4.18964,50.940494 4.32328,51.1565301 4.5422,51.1798434 L5.58844,51.2896747 C5.7746,51.3093614 5.94204,51.1808795 5.96648,50.9959277 C6.3284,48.2563614 8.86288,29.2415542 9.95592,25.3337349 C10.03548,25.0498313 10.41404,24.9959518 10.5768,25.2420361 L14.66608,31.4381807 C14.73212,31.5381687 14.846,31.5972289 14.96612,31.5930843 L21.3304,31.3843012 C21.72144,31.3713494 21.82908,31.9137711 21.463,32.0505422 L16.97176,33.7285783 C16.74712,33.812506 16.6192,34.0482289 16.6712,34.2813614 L16.67328,34.2896506 C16.7284,34.5367711 16.965,34.6984096 17.21616,34.6595542 C21.37096,34.0109277 53.2064,28.7965301 52.70148,21.3756627 C52.68588,21.1435663 52.84604,20.9368554 53.0738,20.8866024 L53.10084,20.8809036 C53.33276,20.8296145 53.56728,20.9513614 53.65256,21.1725783 C54.53292,23.4438072 58.87492,35.6526988 57.04192,51.2005663 C57.02892,51.3098795 57.06948,51.4197108 57.15112,51.4937952 L57.96856,52.2341205 C58.03304,52.2926627 58.11624,52.3242651 58.20204,52.3242651 L58.20204,52.3242651 Z" id="Shape" fill="#712425"></path>
                        <path d="M57.48912,43.6900723 L57.48912,42.7181687 C57.48912,42.7181687 56.03364,42.6207711 55.38364,42.2322169 C54.73364,41.8436627 51.74364,42.1026988 51.74364,42.1026988 C40.82364,37.7638434 34.64864,44.7578193 34.64864,44.7578193 C31.52864,42.6855301 28.40864,44.3692651 28.40864,44.3692651 C20.34864,37.5695663 12.54864,42.6855301 11.18364,42.1674578 C9.81864,41.6493855 6.89364,42.1674578 6.89364,42.1674578 L6.54784,44.8085904 C6.53172,44.9318916 6.64144,45.049494 6.76156,45.0168554 C8.1536,44.6396988 8.36472,50.0986265 8.39176,50.618253 C8.41256,51.0099157 10.01312,63.2141446 20.47812,60.5533253 C30.94312,57.892506 29.31812,47.1539036 29.31812,47.1539036 C30.81312,45.6644458 33.80312,46.9596265 33.80312,46.9596265 C33.54312,55.6373373 39.71812,62.8903494 48.23312,59.8466747 C56.74812,56.803 54.92812,46.3767952 55.31812,46.2472771 C57.49848,45.523012 56.68312,43.7216747 56.68312,43.7216747 L57.48912,43.6900723 L57.48912,43.6900723 Z M22.36364,58.9923735 C15.34364,61.3236988 10.59864,57.2438795 9.55864,50.6384578 C8.51864,44.0330361 14.23864,42.4140602 14.23864,42.4140602 C34.58364,38.9170723 29.38364,56.6610482 22.36364,58.9923735 L22.36364,58.9923735 Z M53.70716,50.6384578 C52.66716,57.2438795 47.92216,61.3236988 40.90216,58.9923735 C33.88216,56.6610482 28.68216,38.9170723 49.02716,42.4140602 C49.02716,42.4140602 54.74716,44.0330361 53.70716,50.6384578 L53.70716,50.6384578 Z" id="Shape" fill="#712425"></path>
                        <path d="M24.05,43.9812289 L15.38316,56.7605181 C15.38316,56.7605181 20.75632,59.8689518 24.05,56.7605181 C27.34368,53.6520843 29.94316,48.1258072 24.05,43.9812289 L24.05,43.9812289 Z" id="Shape" opacity="0.6" fill="url(#linearGradient-1)"></path>
                        <path d="M49.70316,43.9812289 L41.03632,56.7605181 C41.03632,56.7605181 46.40948,59.8689518 49.70316,56.7605181 C52.99684,53.6520843 55.59684,48.1258072 49.70316,43.9812289 L49.70316,43.9812289 Z" id="Shape" opacity="0.6" fill="url(#linearGradient-2)"></path>
                        <path d="M8.64604,43.580241 C8.7152,44.1019398 8.45052,44.5329759 8.01632,44.5329759 C7.58212,44.5329759 7.42092,44.1066024 7.42092,43.580241 C7.42092,43.0538795 7.58212,42.627506 8.01632,42.627506 C8.45052,42.627506 8.5566,42.9020843 8.64604,43.580241 L8.64604,43.580241 Z" id="Shape" fill="#F7F8F8"></path>
                        <path d="M56.1678,43.9812289 C56.1678,44.5075904 56.03624,44.9339639 55.60204,44.9339639 C55.16784,44.9339639 54.96036,44.5075904 54.96036,43.9812289 C54.96036,43.4548675 55.16732,43.028494 55.60204,43.028494 C56.03676,43.028494 56.1678,43.4548675 56.1678,43.9812289 L56.1678,43.9812289 Z" id="Shape" fill="#F7F8F8"></path>
                        <path d="M26.94432,39.272988 L25.8934,41.1572169 C25.83568,41.2608313 25.71608,41.3286988 25.60428,41.2888072 C21.47236,39.7977952 14.13776,40.205 9.80564,41.3323253 C5.71948,42.3954096 12.27564,37.3172651 13.44564,37.5763012 C14.56468,37.8239398 22.46296,37.5913253 23.14832,37.5706024 C23.18264,37.5695663 23.21228,37.5752651 23.24452,37.5871807 L26.80288,38.893759 C26.9568,38.9502289 27.02388,39.13 26.94432,39.272988 L26.94432,39.272988 Z" id="Shape" fill="#712425"></path>
                        <path d="M36.13896,39.272988 L37.18988,41.1572169 C37.2476,41.2608313 37.3672,41.3286988 37.479,41.2888072 C41.61092,39.7977952 48.94552,40.205 53.27764,41.3323253 C57.3638,42.3954096 50.80764,37.3172651 49.63764,37.5763012 C48.5186,37.8239398 40.62032,37.5913253 39.93496,37.5706024 C39.90064,37.5695663 39.871,37.5752651 39.83876,37.5871807 L36.2804,38.893759 C36.12648,38.9502289 36.0594,39.13 36.13896,39.272988 L36.13896,39.272988 Z" id="Shape" fill="#712425"></path>
                    </g>
                </g>
            </g>
        </g>
    </g>
</svg>