<?xml version="1.0" encoding="UTF-8" standalone="no"?>
<svg width="124px" height="187px" viewBox="0 0 124 187" version="1.1" xmlns="http://www.w3.org/2000/svg" xmlns:xlink="http://www.w3.org/1999/xlink" xmlns:sketch="http://www.bohemiancoding.com/sketch/ns">
    <!-- Generator: Sketch 3.2.2 (9983) - http://www.bohemiancoding.com/sketch -->
    <title>losavatar</title>
    <desc>Created with Sketch.</desc>
    <defs>
        <linearGradient x1="0.00128096446%" y1="49.9991464%" x2="99.9997712%" y2="49.9991464%" id="linearGradient-1">
            <stop stop-color="#FFFFFF" stop-opacity="0.1" offset="0%"></stop>
            <stop stop-color="#C7C9CA" stop-opacity="0.4" offset="100%"></stop>
        </linearGradient>
        <linearGradient x1="0.00298886377%" y1="49.9991464%" x2="99.9992691%" y2="49.9991464%" id="linearGradient-2">
            <stop stop-color="#FFFFFF" stop-opacity="0.1" offset="0%"></stop>
            <stop stop-color="#C7C9CA" stop-opacity="0.4" offset="100%"></stop>
        </linearGradient>
    </defs>
    <g id="Page-1" stroke="none" stroke-width="1" fill="none" fill-rule="evenodd" sketch:type="MSPage">
        <g id="Artboard-4" sketch:type="MSArtboardGroup" transform="translate(-126.000000, -32.000000)">
            <g id="Oval-1-+-losavatar" sketch:type="MSLayerGroup">
                <g id="losavatar" transform="translate(126.000000, 32.000000)" sketch:type="MSShapeGroup">
                    <g id="Layer_2">
                        <path d="M111.768,91.479 C111.768,91.479 121.57,80.263 122.513,89.688 C122.513,89.688 126.189,103.355 119.497,112.12 C119.497,112.12 113.371,122.017 109.506,112.12 C105.641,102.223 111.768,91.479 111.768,91.479 L111.768,91.479 Z" id="Shape" fill="#C63B3D"></path>
                        <path d="M11.914,91.479 C11.914,91.479 2.112,80.263 1.169,89.688 C1.169,89.688 -2.507,103.355 4.185,112.12 C4.185,112.12 10.311,122.017 14.176,112.12 C18.041,102.223 11.914,91.479 11.914,91.479 L11.914,91.479 Z" id="Shape" fill="#C63B3D"></path>
                        <path d="M13.962,35.561 C13.962,35.561 -2.371,113.909 25.962,138.235 C54.295,162.561 107.295,119.143 107.295,118.519 C107.295,118.519 127.583,1.894 81.25,27.894 C34.917,53.894 13.962,35.561 13.962,35.561 L13.962,35.561 Z" id="Shape" fill="#C63B3D"></path>
                        <path d="M9.25,94.227 L6.968,125.925 C6.46,132.983 8.116,140.017 11.684,146.128 C25.799,170.3 63.528,223.788 106.455,146.128 C107.929,143.46 113.875,134.134 113.091,125.925 L111.918,87.893 C111.918,87.893 96.046,136.799 78.046,129.799 C60.046,122.799 57.918,128.226 57.918,128.226 C57.918,128.226 54.511,122.487 30.585,132.226 C30.583,132.227 19.25,129.227 9.25,94.227 L9.25,94.227 Z" id="Shape" fill="#712425"></path>
                        <g id="Group" transform="translate(21.000000, 125.000000)">
                            <path d="M0.331,7.349 C0.331,7.349 6.591,14.162 20.769,2.93 C20.769,2.93 32.369,-2.594 36.604,2.93 C36.604,2.93 43.233,-2.226 52.991,2.746 C52.991,2.746 69.01,14.346 72.693,7.165 C72.693,7.165 67.169,34.675 36.512,4.993 C36.512,4.993 19.664,33.679 0.331,7.349 L0.331,7.349 Z" id="Shape" fill="#712425"></path>
                            <path d="M0.357,7.323 C1.042,7.956 1.885,8.407 2.763,8.71 C3.193,8.893 3.661,8.957 4.108,9.08 C4.572,9.127 5.028,9.229 5.494,9.232 C5.959,9.221 6.424,9.283 6.887,9.214 C7.349,9.156 7.815,9.146 8.271,9.048 L9.637,8.765 L10.971,8.349 C11.421,8.225 11.849,8.04 12.276,7.852 L13.561,7.299 L14.795,6.636 C15.201,6.405 15.631,6.218 16.015,5.948 L17.194,5.188 C17.581,4.926 17.993,4.702 18.358,4.407 L20.603,2.722 L20.631,2.701 L20.654,2.691 C21.956,2.087 23.285,1.594 24.648,1.174 C26.011,0.762 27.405,0.433 28.832,0.265 C30.254,0.101 31.723,0.074 33.154,0.422 C33.511,0.508 33.861,0.621 34.206,0.755 C34.546,0.9 34.885,1.053 35.199,1.254 C35.519,1.441 35.82,1.669 36.095,1.919 C36.38,2.162 36.618,2.45 36.858,2.735 L36.407,2.677 C37.032,2.228 37.673,1.898 38.343,1.586 C38.684,1.452 39.014,1.289 39.364,1.181 C39.71,1.063 40.054,0.936 40.412,0.855 C40.766,0.763 41.118,0.664 41.48,0.61 C41.84,0.55 42.197,0.464 42.562,0.441 C42.926,0.41 43.288,0.356 43.652,0.345 L44.745,0.328 C45.109,0.332 45.472,0.375 45.835,0.396 C46.199,0.411 46.559,0.461 46.917,0.528 C47.275,0.591 47.636,0.639 47.99,0.714 L49.044,0.986 C49.755,1.141 50.416,1.45 51.104,1.675 C51.445,1.797 51.764,1.971 52.095,2.117 L53.079,2.574 L53.09,2.579 L53.105,2.59 C54.599,3.661 56.161,4.656 57.756,5.581 C59.355,6.5 60.997,7.351 62.704,8.048 C63.555,8.402 64.432,8.691 65.321,8.923 C65.764,9.047 66.215,9.134 66.665,9.215 C67.117,9.293 67.571,9.336 68.027,9.362 C68.482,9.371 68.936,9.356 69.384,9.29 C69.83,9.22 70.262,9.095 70.673,8.917 C70.873,8.821 71.06,8.698 71.255,8.592 L71.767,8.168 C71.909,7.998 72.06,7.834 72.197,7.66 L72.544,7.089 L73.095,6.182 L72.862,7.2 C72.423,9.117 71.689,10.94 70.711,12.639 C70.201,13.474 69.662,14.299 69.003,15.032 C68.356,15.772 67.635,16.456 66.82,17.018 C66.028,17.616 65.119,18.038 64.197,18.398 C63.73,18.564 63.245,18.679 62.767,18.81 C62.277,18.878 61.788,18.981 61.295,19.019 C60.801,19.029 60.304,19.08 59.811,19.055 C59.319,19.015 58.823,18.997 58.333,18.938 L56.875,18.683 C56.396,18.57 55.925,18.428 55.449,18.301 C54.968,18.189 54.518,17.99 54.056,17.825 C53.599,17.647 53.128,17.5 52.691,17.278 C51.801,16.869 50.907,16.467 50.063,15.972 C49.195,15.52 48.366,15.004 47.547,14.474 C46.709,13.971 45.927,13.389 45.131,12.826 C44.324,12.277 43.569,11.662 42.803,11.061 C42.028,10.47 41.281,9.847 40.55,9.205 C39.819,8.564 39.068,7.944 38.37,7.267 L36.243,5.273 L36.851,5.19 C35.835,6.84 34.685,8.358 33.441,9.816 C32.822,10.546 32.166,11.243 31.493,11.925 C30.815,12.602 30.106,13.247 29.376,13.87 L28.242,14.758 L27.062,15.585 L25.834,16.343 L24.558,17.019 L23.234,17.601 L21.867,18.076 C21.402,18.206 20.93,18.311 20.463,18.43 C19.99,18.525 19.508,18.576 19.031,18.65 C18.069,18.736 17.101,18.759 16.14,18.657 C15.656,18.647 15.186,18.519 14.711,18.442 C14.232,18.373 13.77,18.24 13.312,18.09 C12.378,17.848 11.51,17.424 10.636,17.035 C9.8,16.567 8.948,16.125 8.184,15.548 C7.377,15.031 6.662,14.397 5.932,13.785 C5.207,13.166 4.569,12.455 3.885,11.795 L2.02,9.64 L0.302,7.371 L0.357,7.323 L0.357,7.323 Z M0.361,7.327 L2.143,9.538 L4.062,11.625 C4.761,12.259 5.414,12.945 6.149,13.534 C6.885,14.122 7.597,14.74 8.399,15.233 C9.159,15.789 10.001,16.207 10.825,16.652 C11.684,17.017 12.536,17.417 13.445,17.636 C13.891,17.774 14.34,17.897 14.804,17.955 C15.264,18.022 15.718,18.14 16.186,18.141 C17.113,18.224 18.044,18.187 18.967,18.09 C19.425,18.01 19.887,17.954 20.34,17.856 C20.789,17.734 21.241,17.626 21.686,17.494 L22.996,17.015 L24.265,16.432 L25.49,15.757 L26.669,15.003 L27.803,14.18 L28.893,13.297 C29.602,12.686 30.294,12.056 30.955,11.391 C31.611,10.722 32.252,10.037 32.857,9.319 C34.068,7.893 35.208,6.375 36.175,4.794 L36.428,4.38 L36.783,4.711 L38.9,6.684 C39.595,7.355 40.34,7.966 41.066,8.599 C41.786,9.24 42.521,9.863 43.283,10.452 C44.036,11.052 44.779,11.666 45.571,12.213 C46.352,12.774 47.121,13.355 47.941,13.855 C48.744,14.383 49.556,14.896 50.404,15.345 C51.23,15.837 52.1,16.236 52.967,16.642 C53.394,16.863 53.849,17.007 54.293,17.184 C54.741,17.349 55.18,17.543 55.642,17.659 C56.1,17.788 56.555,17.934 57.016,18.05 L58.416,18.318 C58.885,18.382 59.359,18.405 59.831,18.452 C60.303,18.483 60.776,18.441 61.249,18.44 C61.72,18.411 62.185,18.319 62.654,18.263 C63.109,18.144 63.573,18.044 64.019,17.893 C64.9,17.563 65.773,17.177 66.539,16.616 C67.327,16.091 68.032,15.443 68.669,14.737 C69.317,14.038 69.859,13.244 70.364,12.433 C71.336,10.789 72.083,8.986 72.528,7.132 L72.846,7.243 L72.466,7.854 C72.316,8.042 72.151,8.218 71.994,8.4 C71.811,8.556 71.622,8.707 71.433,8.854 C71.222,8.969 71.018,9.098 70.801,9.199 C70.358,9.385 69.898,9.512 69.428,9.581 C68.958,9.645 68.486,9.656 68.016,9.641 C66.136,9.528 64.34,8.947 62.619,8.263 C60.889,7.585 59.226,6.751 57.605,5.849 C55.986,4.94 54.409,3.967 52.88,2.902 L52.905,2.918 L51.932,2.483 C51.605,2.345 51.29,2.178 50.954,2.063 C50.277,1.853 49.626,1.557 48.93,1.417 L47.899,1.165 C47.552,1.097 47.2,1.059 46.851,1.004 C46.502,0.945 46.152,0.903 45.798,0.896 C45.446,0.882 45.094,0.848 44.741,0.85 L43.685,0.887 C43.334,0.904 42.985,0.964 42.636,1.001 C42.285,1.03 41.943,1.12 41.598,1.185 C41.251,1.244 40.915,1.346 40.577,1.441 C40.236,1.527 39.908,1.651 39.577,1.766 C39.242,1.871 38.928,2.03 38.603,2.159 C37.975,2.454 37.34,2.793 36.803,3.184 L36.556,3.364 L36.351,3.126 C36.134,2.874 35.921,2.617 35.666,2.403 C35.42,2.182 35.151,1.98 34.863,1.815 C34.581,1.637 34.273,1.502 33.965,1.371 C33.651,1.251 33.33,1.149 32.999,1.072 C31.677,0.77 30.282,0.747 28.905,0.897 C26.149,1.209 23.431,2.053 20.884,3.17 L20.934,3.139 L18.643,4.814 C18.271,5.106 17.85,5.331 17.455,5.59 L16.252,6.344 C15.861,6.611 15.421,6.798 15.006,7.026 L13.745,7.682 L12.431,8.229 C11.994,8.415 11.556,8.597 11.095,8.718 L9.729,9.125 L8.327,9.391 C7.859,9.475 7.378,9.471 6.905,9.515 C6.431,9.569 5.953,9.493 5.479,9.487 C5.004,9.469 4.537,9.35 4.068,9.286 C3.614,9.146 3.141,9.065 2.707,8.864 C1.822,8.526 0.982,8.043 0.305,7.375 L0.361,7.327 L0.361,7.327 Z" id="Shape" fill="#4D3532"></path>
                        </g>
                        <path d="M35.153,63.061 C35.153,63.061 68.013,66.716 71.486,66.233" id="Shape" stroke="#712425" stroke-width="0.25"></path>
                        <path d="M31.153,59.727 C31.153,59.727 83.82,64.727 91.486,61.394" id="Shape" stroke="#712425" stroke-width="0.25"></path>
                        <path d="M110.927,100.998 L113.858,100.998 C114.284,100.998 114.6,100.608 114.507,100.193 C113.857,97.273 111.894,87.157 114.695,82.333 C117.976,76.682 129.064,31.087 100.394,23.136 C100.198,23.082 100.037,22.951 99.946,22.769 C99.246,21.359 94.267,14.616 60.746,4.572 C60.725,4.564 60.706,4.558 60.685,4.55 C60.212,4.345 53.887,1.6 52.479,0.719 C51.29,-0.024 52.032,4.182 52.353,5.788 C52.421,6.129 52.219,6.458 51.883,6.55 C46.45,8.033 5.58,20.09 1.614,48.067 C1.612,48.098 1.61,48.126 1.608,48.157 C1.61,49.394 1.692,76.324 5.248,81.935 C5.26,81.959 5.27,81.978 5.282,82.001 C5.541,82.628 9.092,91.434 7.177,97.92 C7.057,98.327 7.314,98.744 7.735,98.789 L9.747,99.001 C10.105,99.039 10.427,98.791 10.474,98.434 C11.17,93.146 16.044,56.443 18.146,48.9 C18.299,48.352 19.027,48.248 19.34,48.723 L27.204,60.683 C27.331,60.876 27.55,60.99 27.781,60.982 L40.02,60.579 C40.772,60.554 40.979,61.601 40.275,61.865 L31.638,65.104 C31.206,65.266 30.96,65.721 31.06,66.171 L31.064,66.187 C31.17,66.664 31.625,66.976 32.108,66.901 C40.098,65.649 101.32,55.584 100.349,41.26 C100.319,40.812 100.627,40.413 101.065,40.316 L101.117,40.305 C101.563,40.206 102.014,40.441 102.178,40.868 C103.871,45.252 112.221,68.818 108.696,98.829 C108.671,99.04 108.749,99.252 108.906,99.395 L110.478,100.824 C110.602,100.937 110.762,100.998 110.927,100.998 L110.927,100.998 Z" id="Shape" fill="#712425"></path>
                        <path d="M109.556,84.332 L109.556,82.456 C109.556,82.456 106.757,82.268 105.507,81.518 C104.257,80.768 98.507,81.268 98.507,81.268 C77.507,72.893 65.632,86.393 65.632,86.393 C59.632,82.393 53.632,85.643 53.632,85.643 C38.132,72.518 23.132,82.393 20.507,81.393 C17.882,80.393 12.257,81.393 12.257,81.393 L11.592,86.491 C11.561,86.729 11.772,86.956 12.003,86.893 C14.68,86.165 15.086,96.702 15.138,97.705 C15.178,98.461 18.256,122.018 38.381,116.882 C58.506,111.746 55.381,91.018 55.381,91.018 C58.256,88.143 64.006,90.643 64.006,90.643 C63.506,107.393 75.381,121.393 91.756,115.518 C108.131,109.643 104.631,89.518 105.381,89.268 C109.574,87.87 108.006,84.393 108.006,84.393 L109.556,84.332 L109.556,84.332 Z M42.007,113.869 C28.507,118.369 19.382,110.494 17.382,97.744 C15.382,84.994 26.382,81.869 26.382,81.869 C65.507,75.119 55.507,109.369 42.007,113.869 L42.007,113.869 Z M102.283,97.744 C100.283,110.494 91.158,118.369 77.658,113.869 C64.158,109.369 54.158,75.119 93.283,81.869 C93.283,81.869 104.283,84.994 102.283,97.744 L102.283,97.744 Z" id="Shape" fill="#712425"></path>
                        <path d="M45.25,84.894 L28.583,109.561 C28.583,109.561 38.916,115.561 45.25,109.561 C51.584,103.561 56.583,92.894 45.25,84.894 L45.25,84.894 Z" id="Shape" opacity="0.6" fill="url(#linearGradient-1)"></path>
                        <path d="M94.583,84.894 L77.916,109.561 C77.916,109.561 88.249,115.561 94.583,109.561 C100.917,103.561 105.917,92.894 94.583,84.894 L94.583,84.894 Z" id="Shape" opacity="0.6" fill="url(#linearGradient-2)"></path>
                        <path d="M15.627,84.12 C15.76,85.127 15.251,85.959 14.416,85.959 C13.581,85.959 13.271,85.136 13.271,84.12 C13.271,83.104 13.581,82.281 14.416,82.281 C15.251,82.281 15.455,82.811 15.627,84.12 L15.627,84.12 Z" id="Shape" fill="#F7F8F8"></path>
                        <path d="M107.015,84.894 C107.015,85.91 106.762,86.733 105.927,86.733 C105.092,86.733 104.693,85.91 104.693,84.894 C104.693,83.878 105.091,83.055 105.927,83.055 C106.763,83.055 107.015,83.878 107.015,84.894 L107.015,84.894 Z" id="Shape" fill="#F7F8F8"></path>
                        <path d="M50.816,75.806 L48.795,79.443 C48.684,79.643 48.454,79.774 48.239,79.697 C40.293,76.819 26.188,77.605 17.857,79.781 C9.999,81.833 22.607,72.031 24.857,72.531 C27.009,73.009 42.198,72.56 43.516,72.52 C43.582,72.518 43.639,72.529 43.701,72.552 L50.544,75.074 C50.84,75.183 50.969,75.53 50.816,75.806 L50.816,75.806 Z" id="Shape" fill="#712425"></path>
                        <path d="M68.498,75.806 L70.519,79.443 C70.63,79.643 70.86,79.774 71.075,79.697 C79.021,76.819 93.126,77.605 101.457,79.781 C109.315,81.833 96.707,72.031 94.457,72.531 C92.305,73.009 77.116,72.56 75.798,72.52 C75.732,72.518 75.675,72.529 75.613,72.552 L68.77,75.074 C68.474,75.183 68.345,75.53 68.498,75.806 L68.498,75.806 Z" id="Shape" fill="#712425"></path>
                    </g>
                </g>
            </g>
        </g>
    </g>
</svg>