<?xml version="1.0" encoding="UTF-8" standalone="no"?>
<svg width="375px" height="375px" viewBox="0 0 375 375" version="1.1" xmlns="http://www.w3.org/2000/svg" xmlns:xlink="http://www.w3.org/1999/xlink" xmlns:sketch="http://www.bohemiancoding.com/sketch/ns">
    <!-- Generator: Sketch 3.2.2 (9983) - http://www.bohemiancoding.com/sketch -->
    <title>Oval 1 + losavatar</title>
    <desc>Created with Sketch.</desc>
    <defs>
        <linearGradient x1="0.00128096446%" y1="49.9991464%" x2="99.9997712%" y2="49.9991464%" id="linearGradient-1">
            <stop stop-color="#FFFFFF" stop-opacity="0.1" offset="0%"></stop>
            <stop stop-color="#C7C9CA" stop-opacity="0.4" offset="100%"></stop>
        </linearGradient>
        <linearGradient x1="0.00298886377%" y1="49.9991464%" x2="99.9992691%" y2="49.9991464%" id="linearGradient-2">
            <stop stop-color="#FFFFFF" stop-opacity="0.1" offset="0%"></stop>
            <stop stop-color="#C7C9CA" stop-opacity="0.4" offset="100%"></stop>
        </linearGradient>
    </defs>
    <g id="Page-1" stroke="none" stroke-width="1" fill="none" fill-rule="evenodd" sketch:type="MSPage">
        <g id="Artboard" sketch:type="MSArtboardGroup">
            <g id="Oval-1-+-losavatar" sketch:type="MSLayerGroup">
                <circle id="Oval-1" fill-opacity="0.75" fill="#FFFFFF" sketch:type="MSShapeGroup" cx="187.5" cy="187.5" r="187.5"></circle>
                <g id="losavatar" transform="translate(125.000000, 32.000000)" sketch:type="MSShapeGroup">
                    <g id="Layer_2">
                        <path d="M112.768,91.479 C112.768,91.479 122.57,80.263 123.513,89.688 C123.513,89.688 127.189,103.355 120.497,112.12 C120.497,112.12 114.371,122.017 110.506,112.12 C106.641,102.223 112.768,91.479 112.768,91.479 L112.768,91.479 Z" id="Shape" fill="#C63B3D"></path>
                        <path d="M12.914,91.479 C12.914,91.479 3.112,80.263 2.169,89.688 C2.169,89.688 -1.507,103.355 5.185,112.12 C5.185,112.12 11.311,122.017 15.176,112.12 C19.041,102.223 12.914,91.479 12.914,91.479 L12.914,91.479 Z" id="Shape" fill="#C63B3D"></path>
                        <path d="M31.169,159.119 C31.169,159.119 9.706,164.28 8.88,167.307 C8.054,170.334 14.659,177.672 14.659,177.672 L101.43,191.981 L108.493,168.337 L108.383,166.069 C108.383,166.069 82.751,159.218 81.16,159.803 C79.569,160.388 31.169,159.119 31.169,159.119 L31.169,159.119 Z" id="Shape" fill="#561C1D"></path>
                        <path d="M30.882,141.309 L26.869,140.106 C26.869,140.106 34.06,169.911 12.521,176.266 L27.175,212.282 L55.07,248.828 L104.504,180.679 C104.504,180.679 86.251,164.893 90.627,143.893" id="Shape" fill="#C63B3D"></path>
                        <path d="M35.612,148.894 C35.612,148.894 22.33,172.408 19.483,172.76 C19.483,172.76 47.581,220.679 82.674,173.888 C117.767,127.097 88.84,135.406 87.503,133.735 C86.166,132.064 35.612,148.894 35.612,148.894 L35.612,148.894 Z" id="Shape" opacity="0.47" fill="#892A2B"></path>
                        <path d="M14.962,35.561 C14.962,35.561 -1.371,113.909 26.962,138.235 C55.295,162.561 108.295,119.143 108.295,118.519 C108.295,118.519 128.583,1.894 82.25,27.894 C35.917,53.894 14.962,35.561 14.962,35.561 L14.962,35.561 Z" id="Shape" fill="#C63B3D"></path>
                        <path d="M27.302,159.119 C20.142,160.574 15.805,162.81 9.003,166.069 L0.15,180.705 L30.144,223.709 L38.817,203.111 L9.546,167.154 C9.546,167.154 14.487,163.133 26.995,160.349 C27.128,159.829 27.245,159.644 27.302,159.119 L27.302,159.119 Z" id="Shape" fill="#D2D1D1"></path>
                        <path d="M108.382,166.07 C108.382,166.07 107.133,163.431 91.565,160.699 C91.638,161.09 89.649,161.072 89.797,161.428 C97.853,163.387 98.271,163.603 107.659,167.335 L78.568,202.389 L86.88,225.156 L116.874,181.61 L108.382,166.07 L108.382,166.07 Z" id="Shape" fill="#D2D1D1"></path>
                        <path d="M10.25,94.227 L7.968,125.925 C7.46,132.983 9.116,140.017 12.684,146.128 C26.799,170.3 64.528,223.788 107.455,146.128 C108.929,143.46 114.875,134.134 114.091,125.925 L112.918,87.893 C112.918,87.893 97.046,136.799 79.046,129.799 C61.046,122.799 58.918,128.226 58.918,128.226 C58.918,128.226 55.511,122.487 31.585,132.226 C31.583,132.227 20.25,129.227 10.25,94.227 L10.25,94.227 Z" id="Shape" fill="#712425"></path>
                        <g id="Group" transform="translate(22.000000, 125.000000)">
                            <path d="M0.331,7.349 C0.331,7.349 6.591,14.162 20.769,2.93 C20.769,2.93 32.369,-2.594 36.604,2.93 C36.604,2.93 43.233,-2.226 52.991,2.746 C52.991,2.746 69.01,14.346 72.693,7.165 C72.693,7.165 67.169,34.675 36.512,4.993 C36.512,4.993 19.664,33.679 0.331,7.349 L0.331,7.349 Z" id="Shape" fill="#712425"></path>
                            <path d="M0.357,7.323 C1.042,7.956 1.885,8.407 2.763,8.71 C3.193,8.893 3.661,8.957 4.108,9.08 C4.572,9.127 5.028,9.229 5.494,9.232 C5.959,9.221 6.424,9.283 6.887,9.214 C7.349,9.156 7.815,9.146 8.271,9.048 L9.637,8.765 L10.971,8.349 C11.421,8.225 11.849,8.04 12.276,7.852 L13.561,7.299 L14.795,6.636 C15.201,6.405 15.631,6.218 16.015,5.948 L17.194,5.188 C17.581,4.926 17.993,4.702 18.358,4.407 L20.603,2.722 L20.631,2.701 L20.654,2.691 C21.956,2.087 23.285,1.594 24.648,1.174 C26.011,0.762 27.405,0.433 28.832,0.265 C30.254,0.101 31.723,0.074 33.154,0.422 C33.511,0.508 33.861,0.621 34.206,0.755 C34.546,0.9 34.885,1.053 35.199,1.254 C35.519,1.441 35.82,1.669 36.095,1.919 C36.38,2.162 36.618,2.45 36.858,2.735 L36.407,2.677 C37.032,2.228 37.673,1.898 38.343,1.586 C38.684,1.452 39.014,1.289 39.364,1.181 C39.71,1.063 40.054,0.936 40.412,0.855 C40.766,0.763 41.118,0.664 41.48,0.61 C41.84,0.55 42.197,0.464 42.562,0.441 C42.926,0.41 43.288,0.356 43.652,0.345 L44.745,0.328 C45.109,0.332 45.472,0.375 45.835,0.396 C46.199,0.411 46.559,0.461 46.917,0.528 C47.275,0.591 47.636,0.639 47.99,0.714 L49.044,0.986 C49.755,1.141 50.416,1.45 51.104,1.675 C51.445,1.797 51.764,1.971 52.095,2.117 L53.079,2.574 L53.09,2.579 L53.105,2.59 C54.599,3.661 56.161,4.656 57.756,5.581 C59.355,6.5 60.997,7.351 62.704,8.048 C63.555,8.402 64.432,8.691 65.321,8.923 C65.764,9.047 66.215,9.134 66.665,9.215 C67.117,9.293 67.571,9.336 68.027,9.362 C68.482,9.371 68.936,9.356 69.384,9.29 C69.83,9.22 70.262,9.095 70.673,8.917 C70.873,8.821 71.06,8.698 71.255,8.592 L71.767,8.168 C71.909,7.998 72.06,7.834 72.197,7.66 L72.544,7.089 L73.095,6.182 L72.862,7.2 C72.423,9.117 71.689,10.94 70.711,12.639 C70.201,13.474 69.662,14.299 69.003,15.032 C68.356,15.772 67.635,16.456 66.82,17.018 C66.028,17.616 65.119,18.038 64.197,18.398 C63.73,18.564 63.245,18.679 62.767,18.81 C62.277,18.878 61.788,18.981 61.295,19.019 C60.801,19.029 60.304,19.08 59.811,19.055 C59.319,19.015 58.823,18.997 58.333,18.938 L56.875,18.683 C56.396,18.57 55.925,18.428 55.449,18.301 C54.968,18.189 54.518,17.99 54.056,17.825 C53.599,17.647 53.128,17.5 52.691,17.278 C51.801,16.869 50.907,16.467 50.063,15.972 C49.195,15.52 48.366,15.004 47.547,14.474 C46.709,13.971 45.927,13.389 45.131,12.826 C44.324,12.277 43.569,11.662 42.803,11.061 C42.028,10.47 41.281,9.847 40.55,9.205 C39.819,8.564 39.068,7.944 38.37,7.267 L36.243,5.273 L36.851,5.19 C35.835,6.84 34.685,8.358 33.441,9.816 C32.822,10.546 32.166,11.243 31.493,11.925 C30.815,12.602 30.106,13.247 29.376,13.87 L28.242,14.758 L27.062,15.585 L25.834,16.343 L24.558,17.019 L23.234,17.601 L21.867,18.076 C21.402,18.206 20.93,18.311 20.463,18.43 C19.99,18.525 19.508,18.576 19.031,18.65 C18.069,18.736 17.101,18.759 16.14,18.657 C15.656,18.647 15.186,18.519 14.711,18.442 C14.232,18.373 13.77,18.24 13.312,18.09 C12.378,17.848 11.51,17.424 10.636,17.035 C9.8,16.567 8.948,16.125 8.184,15.548 C7.377,15.031 6.662,14.397 5.932,13.785 C5.207,13.166 4.569,12.455 3.885,11.795 L2.02,9.64 L0.302,7.371 L0.357,7.323 L0.357,7.323 Z M0.361,7.327 L2.143,9.538 L4.062,11.625 C4.761,12.259 5.414,12.945 6.149,13.534 C6.885,14.122 7.597,14.74 8.399,15.233 C9.159,15.789 10.001,16.207 10.825,16.652 C11.684,17.017 12.536,17.417 13.445,17.636 C13.891,17.774 14.34,17.897 14.804,17.955 C15.264,18.022 15.718,18.14 16.186,18.141 C17.113,18.224 18.044,18.187 18.967,18.09 C19.425,18.01 19.887,17.954 20.34,17.856 C20.789,17.734 21.241,17.626 21.686,17.494 L22.996,17.015 L24.265,16.432 L25.49,15.757 L26.669,15.003 L27.803,14.18 L28.893,13.297 C29.602,12.686 30.294,12.056 30.955,11.391 C31.611,10.722 32.252,10.037 32.857,9.319 C34.068,7.893 35.208,6.375 36.175,4.794 L36.428,4.38 L36.783,4.711 L38.9,6.684 C39.595,7.355 40.34,7.966 41.066,8.599 C41.786,9.24 42.521,9.863 43.283,10.452 C44.036,11.052 44.779,11.666 45.571,12.213 C46.352,12.774 47.121,13.355 47.941,13.855 C48.744,14.383 49.556,14.896 50.404,15.345 C51.23,15.837 52.1,16.236 52.967,16.642 C53.394,16.863 53.849,17.007 54.293,17.184 C54.741,17.349 55.18,17.543 55.642,17.659 C56.1,17.788 56.555,17.934 57.016,18.05 L58.416,18.318 C58.885,18.382 59.359,18.405 59.831,18.452 C60.303,18.483 60.776,18.441 61.249,18.44 C61.72,18.411 62.185,18.319 62.654,18.263 C63.109,18.144 63.573,18.044 64.019,17.893 C64.9,17.563 65.773,17.177 66.539,16.616 C67.327,16.091 68.032,15.443 68.669,14.737 C69.317,14.038 69.859,13.244 70.364,12.433 C71.336,10.789 72.083,8.986 72.528,7.132 L72.846,7.243 L72.466,7.854 C72.316,8.042 72.151,8.218 71.994,8.4 C71.811,8.556 71.622,8.707 71.433,8.854 C71.222,8.969 71.018,9.098 70.801,9.199 C70.358,9.385 69.898,9.512 69.428,9.581 C68.958,9.645 68.486,9.656 68.016,9.641 C66.136,9.528 64.34,8.947 62.619,8.263 C60.889,7.585 59.226,6.751 57.605,5.849 C55.986,4.94 54.409,3.967 52.88,2.902 L52.905,2.918 L51.932,2.483 C51.605,2.345 51.29,2.178 50.954,2.063 C50.277,1.853 49.626,1.557 48.93,1.417 L47.899,1.165 C47.552,1.097 47.2,1.059 46.851,1.004 C46.502,0.945 46.152,0.903 45.798,0.896 C45.446,0.882 45.094,0.848 44.741,0.85 L43.685,0.887 C43.334,0.904 42.985,0.964 42.636,1.001 C42.285,1.03 41.943,1.12 41.598,1.185 C41.251,1.244 40.915,1.346 40.577,1.441 C40.236,1.527 39.908,1.651 39.577,1.766 C39.242,1.871 38.928,2.03 38.603,2.159 C37.975,2.454 37.34,2.793 36.803,3.184 L36.556,3.364 L36.351,3.126 C36.134,2.874 35.921,2.617 35.666,2.403 C35.42,2.182 35.151,1.98 34.863,1.815 C34.581,1.637 34.273,1.502 33.965,1.371 C33.651,1.251 33.33,1.149 32.999,1.072 C31.677,0.77 30.282,0.747 28.905,0.897 C26.149,1.209 23.431,2.053 20.884,3.17 L20.934,3.139 L18.643,4.814 C18.271,5.106 17.85,5.331 17.455,5.59 L16.252,6.344 C15.861,6.611 15.421,6.798 15.006,7.026 L13.745,7.682 L12.431,8.229 C11.994,8.415 11.556,8.597 11.095,8.718 L9.729,9.125 L8.327,9.391 C7.859,9.475 7.378,9.471 6.905,9.515 C6.431,9.569 5.953,9.493 5.479,9.487 C5.004,9.469 4.537,9.35 4.068,9.286 C3.614,9.146 3.141,9.065 2.707,8.864 C1.822,8.526 0.982,8.043 0.305,7.375 L0.361,7.327 L0.361,7.327 Z" id="Shape" fill="#4D3532"></path>
                        </g>
                        <path d="M36.153,63.061 C36.153,63.061 69.013,66.716 72.486,66.233" id="Shape" stroke="#712425" stroke-width="0.25"></path>
                        <path d="M32.153,59.727 C32.153,59.727 84.82,64.727 92.486,61.394" id="Shape" stroke="#712425" stroke-width="0.25"></path>
                        <path d="M111.927,100.998 L114.858,100.998 C115.284,100.998 115.6,100.608 115.507,100.193 C114.857,97.273 112.894,87.157 115.695,82.333 C118.976,76.682 130.064,31.087 101.394,23.136 C101.198,23.082 101.037,22.951 100.946,22.769 C100.246,21.359 95.267,14.616 61.746,4.572 C61.725,4.564 61.706,4.558 61.685,4.55 C61.212,4.345 54.887,1.6 53.479,0.719 C52.29,-0.024 53.032,4.182 53.353,5.788 C53.421,6.129 53.219,6.458 52.883,6.55 C47.45,8.033 6.58,20.09 2.614,48.067 C2.612,48.098 2.61,48.126 2.608,48.157 C2.61,49.394 2.692,76.324 6.248,81.935 C6.26,81.959 6.27,81.978 6.282,82.001 C6.541,82.628 10.092,91.434 8.177,97.92 C8.057,98.327 8.314,98.744 8.735,98.789 L10.747,99.001 C11.105,99.039 11.427,98.791 11.474,98.434 C12.17,93.146 17.044,56.443 19.146,48.9 C19.299,48.352 20.027,48.248 20.34,48.723 L28.204,60.683 C28.331,60.876 28.55,60.99 28.781,60.982 L41.02,60.579 C41.772,60.554 41.979,61.601 41.275,61.865 L32.638,65.104 C32.206,65.266 31.96,65.721 32.06,66.171 L32.064,66.187 C32.17,66.664 32.625,66.976 33.108,66.901 C41.098,65.649 102.32,55.584 101.349,41.26 C101.319,40.812 101.627,40.413 102.065,40.316 L102.117,40.305 C102.563,40.206 103.014,40.441 103.178,40.868 C104.871,45.252 113.221,68.818 109.696,98.829 C109.671,99.04 109.749,99.252 109.906,99.395 L111.478,100.824 C111.602,100.937 111.762,100.998 111.927,100.998 L111.927,100.998 Z" id="Shape" fill="#712425"></path>
                        <path d="M110.556,84.332 L110.556,82.456 C110.556,82.456 107.757,82.268 106.507,81.518 C105.257,80.768 99.507,81.268 99.507,81.268 C78.507,72.893 66.632,86.393 66.632,86.393 C60.632,82.393 54.632,85.643 54.632,85.643 C39.132,72.518 24.132,82.393 21.507,81.393 C18.882,80.393 13.257,81.393 13.257,81.393 L12.592,86.491 C12.561,86.729 12.772,86.956 13.003,86.893 C15.68,86.165 16.086,96.702 16.138,97.705 C16.178,98.461 19.256,122.018 39.381,116.882 C59.506,111.746 56.381,91.018 56.381,91.018 C59.256,88.143 65.006,90.643 65.006,90.643 C64.506,107.393 76.381,121.393 92.756,115.518 C109.131,109.643 105.631,89.518 106.381,89.268 C110.574,87.87 109.006,84.393 109.006,84.393 L110.556,84.332 L110.556,84.332 Z M43.007,113.869 C29.507,118.369 20.382,110.494 18.382,97.744 C16.382,84.994 27.382,81.869 27.382,81.869 C66.507,75.119 56.507,109.369 43.007,113.869 L43.007,113.869 Z M103.283,97.744 C101.283,110.494 92.158,118.369 78.658,113.869 C65.158,109.369 55.158,75.119 94.283,81.869 C94.283,81.869 105.283,84.994 103.283,97.744 L103.283,97.744 Z" id="Shape" fill="#712425"></path>
                        <path d="M46.25,84.894 L29.583,109.561 C29.583,109.561 39.916,115.561 46.25,109.561 C52.584,103.561 57.583,92.894 46.25,84.894 L46.25,84.894 Z" id="Shape" opacity="0.6" fill="url(#linearGradient-1)"></path>
                        <path d="M95.583,84.894 L78.916,109.561 C78.916,109.561 89.249,115.561 95.583,109.561 C101.917,103.561 106.917,92.894 95.583,84.894 L95.583,84.894 Z" id="Shape" opacity="0.6" fill="url(#linearGradient-2)"></path>
                        <path d="M16.627,84.12 C16.76,85.127 16.251,85.959 15.416,85.959 C14.581,85.959 14.271,85.136 14.271,84.12 C14.271,83.104 14.581,82.281 15.416,82.281 C16.251,82.281 16.455,82.811 16.627,84.12 L16.627,84.12 Z" id="Shape" fill="#F7F8F8"></path>
                        <path d="M108.015,84.894 C108.015,85.91 107.762,86.733 106.927,86.733 C106.092,86.733 105.693,85.91 105.693,84.894 C105.693,83.878 106.091,83.055 106.927,83.055 C107.763,83.055 108.015,83.878 108.015,84.894 L108.015,84.894 Z" id="Shape" fill="#F7F8F8"></path>
                        <path d="M51.816,75.806 L49.795,79.443 C49.684,79.643 49.454,79.774 49.239,79.697 C41.293,76.819 27.188,77.605 18.857,79.781 C10.999,81.833 23.607,72.031 25.857,72.531 C28.009,73.009 43.198,72.56 44.516,72.52 C44.582,72.518 44.639,72.529 44.701,72.552 L51.544,75.074 C51.84,75.183 51.969,75.53 51.816,75.806 L51.816,75.806 Z" id="Shape" fill="#712425"></path>
                        <path d="M69.498,75.806 L71.519,79.443 C71.63,79.643 71.86,79.774 72.075,79.697 C80.021,76.819 94.126,77.605 102.457,79.781 C110.315,81.833 97.707,72.031 95.457,72.531 C93.305,73.009 78.116,72.56 76.798,72.52 C76.732,72.518 76.675,72.529 76.613,72.552 L69.77,75.074 C69.474,75.183 69.345,75.53 69.498,75.806 L69.498,75.806 Z" id="Shape" fill="#712425"></path>
                    </g>
                </g>
            </g>
        </g>
    </g>
</svg>